# xmcd CD database file
#
# Track frame offsets:
#	150
#	14793
#	29463
#	44414
#	59791
#	73304
#	90301
#	104534
#	119264
#	134280
#	148602
#	164302
#	180923
#	194090
#	209524
#	225114
#	240128
#	254573
#	269750
#	286847
#	303395
#	317541
#
# Disc length: 4440 seconds
#
# Revision: 0
# Processed by: cddbd v1.4PL0 Copyright (c) Steve Scherf et al.
# Submitted via: CDex 1.50beta9a
#
DISCID=48115616
DTITLE=Grupo Niche - 22 Ultimate Salsa Hits 4-2002
DYEAR=2002
DGENRE=Salsa
TTITLE0=Una Aventura
TTITLE1=La Gallinita De Los Huevos De Oro
TTITLE2=Batalla De Flores
TTITLE3=Gotas De LLuvia
TTITLE4=Busca Por Dentro
TTITLE5=Cielo De Tambores
TTITLE6=Lo Bonito Y Lo Feo
TTITLE7=Hagamo Lo Que Diga El Corazon
TTITLE8=Cal Pachanguero
TTITLE9=La Negra No Quiere
TTITLE10=Se Me Parte El Corazon
TTITLE11=Duele Mas
TTITLE12=Solo Un Carino
TTITLE13=La Magia De Tus Besos
TTITLE14=Verdades Que Saben
TTITLE15=Nuestro Sueno
TTITLE16=Cali Aji
TTITLE17=Tiempos De Ayer
TTITLE18=Se Parecio Tanto A Ti
TTITLE19=Solo Tu Sabes
TTITLE20=Cimarron
TTITLE21=Busco
EXTD=YEAR: 2002
EXTT0=
EXTT1=
EXTT2=
EXTT3=
EXTT4=
EXTT5=
EXTT6=
EXTT7=
EXTT8=
EXTT9=
EXTT10=
EXTT11=
EXTT12=
EXTT13=
EXTT14=
EXTT15=
EXTT16=
EXTT17=
EXTT18=
EXTT19=
EXTT20=
EXTT21=
PLAYORDER=
